<svg preserveAspectRatio="xMidYMid meet" viewBox="36.07 8 27.71 84">
<g transform="translate(0.000000,96.000000) scale(0.100000,-0.100000)" fill="currentColor" stroke="none">
<path d="M432 860 c-68 -42 -91 -124 -52 -188 41 -66 113 -88 179 -54 101 51 106 183 9 242 -18 11 -49 20 -68 20 -19 0 -50 -9 -68 -20z"/>
<path d="M453 469 c-60 -18 -105 -100 -89 -164 10 -41 64 -94 102 -101 39 -7 39 -14 -3 -97 -23 -45 -23 -67 -2 -67 15 0 100 82 125 121 53 84 66 199 30 254 -33 50 -101 73 -163 54z"/>
</g>
</svg>